<?xml version="1.0" encoding="UTF-8" standalone="no"?>
<!-- Created with Inkscape (http://www.inkscape.org/) -->

<svg
   xmlns:dc="http://purl.org/dc/elements/1.1/"
   xmlns:cc="http://creativecommons.org/ns#"
   xmlns:rdf="http://www.w3.org/1999/02/22-rdf-syntax-ns#"
   xmlns:svg="http://www.w3.org/2000/svg"
   xmlns="http://www.w3.org/2000/svg"
   xmlns:xlink="http://www.w3.org/1999/xlink"
   xmlns:sodipodi="http://sodipodi.sourceforge.net/DTD/sodipodi-0.dtd"
   xmlns:inkscape="http://www.inkscape.org/namespaces/inkscape"
   width="128"
   height="128"
   viewBox="0 0 33.866666 33.866668"
   version="1.1"
   id="svg8"
   inkscape:version="0.92.2 5c3e80d, 2017-08-06"
   sodipodi:docname="icon.svg"
   inkscape:export-filename="/Users/kivutar/go/src/github.com/kivutar/go-playthemall/assets/icon.png"
   inkscape:export-xdpi="768.00006"
   inkscape:export-ydpi="768.00006">
  <defs
     id="defs2">
    <linearGradient
       inkscape:collect="always"
       id="linearGradient896">
      <stop
         style="stop-color:#000000;stop-opacity:0.07843138"
         offset="0"
         id="stop892" />
      <stop
         style="stop-color:#000000;stop-opacity:0.04040404"
         offset="1"
         id="stop894" />
    </linearGradient>
    <filter
       inkscape:collect="always"
       style="color-interpolation-filters:sRGB"
       id="filter884"
       x="-0.06"
       width="1.12"
       y="-0.06"
       height="1.12">
      <feGaussianBlur
         inkscape:collect="always"
         stdDeviation="0.74083338"
         id="feGaussianBlur886" />
    </filter>
    <linearGradient
       inkscape:collect="always"
       xlink:href="#linearGradient896"
       id="linearGradient898"
       x1="16.933334"
       y1="294.88333"
       x2="16.933334"
       y2="265.25"
       gradientUnits="userSpaceOnUse"
       gradientTransform="matrix(1.0086207,0,0,1.0086207,-0.14597701,-2.4143678)" />
  </defs>
  <sodipodi:namedview
     id="base"
     pagecolor="#ffffff"
     bordercolor="#666666"
     borderopacity="1.0"
     inkscape:pageopacity="0.0"
     inkscape:pageshadow="2"
     inkscape:zoom="4"
     inkscape:cx="10.190176"
     inkscape:cy="33.724492"
     inkscape:document-units="mm"
     inkscape:current-layer="layer1"
     showgrid="true"
     units="px"
     inkscape:window-width="1680"
     inkscape:window-height="925"
     inkscape:window-x="0"
     inkscape:window-y="1"
     inkscape:window-maximized="1"
     inkscape:pagecheckerboard="true">
    <inkscape:grid
       type="xygrid"
       id="grid815"
       empspacing="4"
       spacingy="0.26458334"
       spacingx="0.26458334" />
  </sodipodi:namedview>
  <metadata
     id="metadata5">
    <rdf:RDF>
      <cc:Work
         rdf:about="">
        <dc:format>image/svg+xml</dc:format>
        <dc:type
           rdf:resource="http://purl.org/dc/dcmitype/StillImage" />
        <dc:title />
      </cc:Work>
    </rdf:RDF>
  </metadata>
  <g
     inkscape:label="Layer 1"
     inkscape:groupmode="layer"
     id="layer1"
     transform="translate(0,-263.13332)">
    <circle
       style="fill:#000000;fill-opacity:1;stroke:none;stroke-width:0.98777777;stroke-miterlimit:4;stroke-dasharray:none;stroke-opacity:1;filter:url(#filter884)"
       id="path830"
       cx="16.933332"
       cy="280.33124"
       r="14.816668" />
    <circle
       style="fill:#a82a10;fill-opacity:1;stroke:#ffffff;stroke-width:1.32291667;stroke-opacity:1;stroke-miterlimit:4;stroke-dasharray:none"
       id="path829"
       cx="16.933334"
       cy="280.06665"
       r="14.816667" />
    <circle
       style="fill:url(#linearGradient898);fill-opacity:1;stroke:none;stroke-width:1.10558021;stroke-miterlimit:4;stroke-dasharray:none;stroke-opacity:1"
       id="path890"
       cx="16.933332"
       cy="280.06665"
       r="15.478125" />
    <path
       style="fill:#fafafa;fill-opacity:1;stroke:none;stroke-width:0.99999994px;stroke-linecap:butt;stroke-linejoin:miter;stroke-opacity:1"
       d="M 71.501953 33.134766 C 70.327348 33.815459 68.177377 34.87957 66.341797 36.855469 C 64.511211 38.825958 63.006219 41.756451 62.998047 45.96875 C 58.03048 45.898618 53.032307 45.269742 48 44 C 43.617264 45.093984 36.641286 43.750161 34 52 C 34 52 28.000007 69.675452 28 76 C 28 76 28.114373 81.057197 30 82 C 35.656851 84.828447 44.000001 80.000025 48 76 C 58.479787 73.416844 69.134452 73.250961 80 76 C 83.999999 80.000025 92.570055 84.737761 98.214844 81.785156 C 100.0033 80.849685 100 76.000076 100 76 C 99.992116 75.295794 99.902318 74.431348 99.763672 73.480469 C 93.773861 72.893557 88.564475 70.806858 84.464844 67.460938 A 5.9999992 5.9999992 0 0 1 82 68 A 5.9999992 5.9999992 0 0 1 76 62 A 5.9999992 5.9999992 0 0 1 77.371094 58.185547 C 75.63033 54.374994 74.657018 49.973277 74.525391 45.121094 C 71.362049 45.640252 68.186408 45.92392 64.998047 45.978516 C 65.003513 42.223624 66.264699 39.878828 67.810547 38.214844 C 69.35976 36.547241 71.219633 35.60868 72.505859 34.863281 L 71.501953 33.134766 z M 80 44 C 79.171958 44.204868 78.343379 44.388508 77.513672 44.5625 C 77.577917 49.02121 78.394982 52.987067 79.859375 56.396484 A 5.9999992 5.9999992 0 0 1 82 56 A 5.9999992 5.9999992 0 0 1 88 62 A 5.9999992 5.9999992 0 0 1 86.84375 65.53125 C 90.180766 68.112742 94.336687 69.779424 99.197266 70.390625 C 97.566559 62.674344 94 52 94 52 C 91.707773 44.185789 84.585519 44.901795 80 44 z M 45 57.998047 L 47 57.998047 L 47 59.001953 L 47 61.001953 L 49.001953 61.001953 L 49.998047 61.001953 L 49.998047 63.001953 L 49.001953 63.001953 L 47 63.001953 L 47 65.003906 L 47 66 L 45 66 L 45 65.003906 L 45 63.001953 L 43 63.001953 L 42.003906 63.001953 L 42.003906 61.001953 L 43 61.001953 L 45 61.001953 L 45 59.001953 L 45 57.998047 z M 82 58 A 0.9999999 0.9999999 0 0 0 81 59 A 0.9999999 0.9999999 0 0 0 82 60 A 0.9999999 0.9999999 0 0 0 83 59 A 0.9999999 0.9999999 0 0 0 82 58 z M 79 61 A 0.99999989 0.99999989 0 0 0 78 62 A 0.99999989 0.99999989 0 0 0 79 63 A 0.99999989 0.99999989 0 0 0 80 62 A 0.99999989 0.99999989 0 0 0 79 61 z M 85 61 A 0.99999991 0.99999991 0 0 0 84 62 A 0.99999991 0.99999991 0 0 0 85 63 A 0.99999991 0.99999991 0 0 0 86 62 A 0.99999991 0.99999991 0 0 0 85 61 z M 67.351562 63.238281 L 68.652344 64.759766 C 67.099529 66.083129 65.451464 66.760452 63.824219 66.722656 C 62.19697 66.686562 60.677361 65.947542 59.335938 64.744141 L 60.664062 63.253906 C 61.756055 64.233522 62.812949 64.707792 63.867188 64.730469 C 64.921419 64.753826 66.063741 64.335818 67.351562 63.238281 z M 82 64 A 0.99999992 0.99999992 0 0 0 81 65 A 0.99999992 0.99999992 0 0 0 82 66 A 0.99999992 0.99999992 0 0 0 83 65 A 0.99999992 0.99999992 0 0 0 82 64 z "
       transform="matrix(0.26458333,0,0,0.26458333,0,263.13332)"
       id="path817" />
    <rect
       style="fill:#ffffff;fill-opacity:1;stroke:none;stroke-width:0.26458332;stroke-opacity:1"
       id="rect835"
       width="0"
       height="25.400009"
       x="16.933332"
       y="267.36667" />
  </g>
</svg>
